<svg id="visual" viewBox="0 0 900 600" width="900" height="600" xmlns="http://www.w3.org/2000/svg" xmlns:xlink="http://www.w3.org/1999/xlink" version="1.1"><path d="M0 275L21.5 275.5C43 276 86 277 128.8 276.2C171.7 275.3 214.3 272.7 257.2 274.7C300 276.7 343 283.3 385.8 300.5C428.7 317.7 471.3 345.3 514.2 352.2C557 359 600 345 642.8 324.5C685.7 304 728.3 277 771.2 267.3C814 257.7 857 265.3 878.5 269.2L900 273L900 601L878.5 601C857 601 814 601 771.2 601C728.3 601 685.7 601 642.8 601C600 601 557 601 514.2 601C471.3 601 428.7 601 385.8 601C343 601 300 601 257.2 601C214.3 601 171.7 601 128.8 601C86 601 43 601 21.5 601L0 601Z" fill="#87cefa"></path><path d="M0 339L21.5 348.3C43 357.7 86 376.3 128.8 386C171.7 395.7 214.3 396.3 257.2 395.5C300 394.7 343 392.3 385.8 396.2C428.7 400 471.3 410 514.2 405.2C557 400.3 600 380.7 642.8 371.7C685.7 362.7 728.3 364.3 771.2 376C814 387.7 857 409.3 878.5 420.2L900 431L900 601L878.5 601C857 601 814 601 771.2 601C728.3 601 685.7 601 642.8 601C600 601 557 601 514.2 601C471.3 601 428.7 601 385.8 601C343 601 300 601 257.2 601C214.3 601 171.7 601 128.8 601C86 601 43 601 21.5 601L0 601Z" fill="#8ad7f8"></path><path d="M0 432L21.5 432.8C43 433.7 86 435.3 128.8 425.8C171.7 416.3 214.3 395.7 257.2 388.8C300 382 343 389 385.8 397.8C428.7 406.7 471.3 417.3 514.2 415.8C557 414.3 600 400.7 642.8 393.8C685.7 387 728.3 387 771.2 400.7C814 414.3 857 441.7 878.5 455.3L900 469L900 601L878.5 601C857 601 814 601 771.2 601C728.3 601 685.7 601 642.8 601C600 601 557 601 514.2 601C471.3 601 428.7 601 385.8 601C343 601 300 601 257.2 601C214.3 601 171.7 601 128.8 601C86 601 43 601 21.5 601L0 601Z" fill="#93e0f4"></path><path d="M0 454L21.5 462.2C43 470.3 86 486.7 128.8 485C171.7 483.3 214.3 463.7 257.2 464.7C300 465.7 343 487.3 385.8 497.2C428.7 507 471.3 505 514.2 492.8C557 480.7 600 458.3 642.8 459.8C685.7 461.3 728.3 486.7 771.2 491.7C814 496.7 857 481.3 878.5 473.7L900 466L900 601L878.5 601C857 601 814 601 771.2 601C728.3 601 685.7 601 642.8 601C600 601 557 601 514.2 601C471.3 601 428.7 601 385.8 601C343 601 300 601 257.2 601C214.3 601 171.7 601 128.8 601C86 601 43 601 21.5 601L0 601Z" fill="#a0e7f1"></path><path d="M0 535L21.5 536C43 537 86 539 128.8 540.7C171.7 542.3 214.3 543.7 257.2 539.2C300 534.7 343 524.3 385.8 521.7C428.7 519 471.3 524 514.2 530C557 536 600 543 642.8 538.2C685.7 533.3 728.3 516.7 771.2 507.7C814 498.7 857 497.3 878.5 496.7L900 496L900 601L878.5 601C857 601 814 601 771.2 601C728.3 601 685.7 601 642.8 601C600 601 557 601 514.2 601C471.3 601 428.7 601 385.8 601C343 601 300 601 257.2 601C214.3 601 171.7 601 128.8 601C86 601 43 601 21.5 601L0 601Z" fill="#afeeee"></path></svg>