<svg id="visual" viewBox="0 0 900 600" width="900" height="600" xmlns="http://www.w3.org/2000/svg" xmlns:xlink="http://www.w3.org/1999/xlink" version="1.1"><path d="M0 412L15 419C30 426 60 440 90 446.3C120 452.7 150 451.3 180 437.8C210 424.3 240 398.7 270 383C300 367.3 330 361.7 360 360.7C390 359.7 420 363.3 450 375.3C480 387.3 510 407.7 540 422.2C570 436.7 600 445.3 630 445C660 444.7 690 435.3 720 421.7C750 408 780 390 810 378.3C840 366.7 870 361.3 885 358.7L900 356L900 601L885 601C870 601 840 601 810 601C780 601 750 601 720 601C690 601 660 601 630 601C600 601 570 601 540 601C510 601 480 601 450 601C420 601 390 601 360 601C330 601 300 601 270 601C240 601 210 601 180 601C150 601 120 601 90 601C60 601 30 601 15 601L0 601Z" fill="#00ace6"></path><path d="M0 459L15 458.2C30 457.3 60 455.7 90 453.7C120 451.7 150 449.3 180 450.7C210 452 240 457 270 461.8C300 466.7 330 471.3 360 474.2C390 477 420 478 450 479.5C480 481 510 483 540 473.5C570 464 600 443 630 431.2C660 419.3 690 416.7 720 422.2C750 427.7 780 441.3 810 445.3C840 449.3 870 443.7 885 440.8L900 438L900 601L885 601C870 601 840 601 810 601C780 601 750 601 720 601C690 601 660 601 630 601C600 601 570 601 540 601C510 601 480 601 450 601C420 601 390 601 360 601C330 601 300 601 270 601C240 601 210 601 180 601C150 601 120 601 90 601C60 601 30 601 15 601L0 601Z" fill="#4dc4e7"></path><path d="M0 500L15 497C30 494 60 488 90 482.8C120 477.7 150 473.3 180 479.2C210 485 240 501 270 503.2C300 505.3 330 493.7 360 492.3C390 491 420 500 450 504.3C480 508.7 510 508.3 540 501.3C570 494.3 600 480.7 630 477.8C660 475 690 483 720 483.8C750 484.7 780 478.3 810 482.8C840 487.3 870 502.7 885 510.3L900 518L900 601L885 601C870 601 840 601 810 601C780 601 750 601 720 601C690 601 660 601 630 601C600 601 570 601 540 601C510 601 480 601 450 601C420 601 390 601 360 601C330 601 300 601 270 601C240 601 210 601 180 601C150 601 120 601 90 601C60 601 30 601 15 601L0 601Z" fill="#80dae9"></path><path d="M0 518L15 526.3C30 534.7 60 551.3 90 551.7C120 552 150 536 180 533.8C210 531.7 240 543.3 270 550.8C300 558.3 330 561.7 360 555C390 548.3 420 531.7 450 530.5C480 529.3 510 543.7 540 548.7C570 553.7 600 549.3 630 550.5C660 551.7 690 558.3 720 559.8C750 561.3 780 557.7 810 554.2C840 550.7 870 547.3 885 545.7L900 544L900 601L885 601C870 601 840 601 810 601C780 601 750 601 720 601C690 601 660 601 630 601C600 601 570 601 540 601C510 601 480 601 450 601C420 601 390 601 360 601C330 601 300 601 270 601C240 601 210 601 180 601C150 601 120 601 90 601C60 601 30 601 15 601L0 601Z" fill="#afeeee"></path></svg>